<svg xmlns="http://www.w3.org/2000/svg" viewBox="0 0 415.27 516.13"><defs><style>.cls-1{fill:#001328;}.cls-2{fill:#fff;}</style></defs><title>ScoreFrame</title><g id="Layer_2" data-name="Layer 2"><g id="Layer_6" data-name="Layer 6"><path class="cls-1" d="M29.94,0H385.33a29.94,29.94,0,0,1,29.94,29.94V486.19a29.95,29.95,0,0,1-29.95,29.95H29.95A29.95,29.95,0,0,1,0,486.19V29.94A29.94,29.94,0,0,1,29.94,0Z"/><path class="cls-2" d="M314.21,488.33H100.72a6.43,6.43,0,0,1-6.42-6.42,60.15,60.15,0,0,0-60.07-60.09,6.41,6.41,0,0,1-6.42-6.41v-313A6.42,6.42,0,0,1,34.23,96,60.14,60.14,0,0,0,94.3,35.87c0-.49,0-1,0-1.45a6.42,6.42,0,0,1,6.41-6.61H314.24a6.42,6.42,0,0,1,6.41,6.61c0,.48,0,1,0,1.45A60.15,60.15,0,0,0,380.71,96h-.17a6.44,6.44,0,0,1,6.93,6.4V415.42a6.43,6.43,0,0,1-2.06,4.7,6.35,6.35,0,0,1-4.69,1.7,60.16,60.16,0,0,0-60.09,60.09A6.42,6.42,0,0,1,314.21,488.33ZM106.86,475.49H308.07a73.05,73.05,0,0,1,66.56-66.25V108.54A73,73,0,0,1,308,40.64H107a73,73,0,0,1-66.34,67.87V409.27A73,73,0,0,1,106.86,475.49Z"/><circle class="cls-2" cx="207.64" cy="254.82" r="129.74" transform="translate(-68.81 432.66) rotate(-83.58)"/><path class="cls-1" d="M207.64,373.07A118.25,118.25,0,1,1,325.89,254.82,118.38,118.38,0,0,1,207.64,373.07Zm0-219.39A101.14,101.14,0,1,0,308.78,254.82,101.25,101.25,0,0,0,207.64,153.68Z"/></g></g></svg>