<?xml version="1.0" encoding="utf-8"?>
<!-- Generator: Adobe Illustrator 24.0.0, SVG Export Plug-In . SVG Version: 6.00 Build 0)  -->
<svg version="1.1" id="Layer_1" xmlns="http://www.w3.org/2000/svg" xmlns:xlink="http://www.w3.org/1999/xlink" x="0px" y="0px"
	 viewBox="0 0 987.5 396.8" style="enable-background:new 0 0 987.5 396.8;" xml:space="preserve">
<style type="text/css">
	.st0{fill:#400D10;stroke:#400D10;stroke-miterlimit:10;}
	.st1{fill:#4DA07F;stroke:#000000;stroke-width:6;stroke-miterlimit:10;}
	.st2{fill:#FFFFFF;stroke:#000000;stroke-width:6;stroke-miterlimit:10;}
	.st3{fill:#4DA07F;stroke:#000000;stroke-width:3;stroke-miterlimit:10;}
	.st4{fill:none;stroke:#090200;stroke-width:6;stroke-miterlimit:10;}
	.st5{fill:#FFFFFD;stroke:#000000;stroke-width:5;stroke-miterlimit:10;}
</style>
<g>
	<path class="st0" d="M974,246.2H228.7c-6.6,0-12-5.4-12-12v-162c0-6.6,5.4-12,12-12H974c6.6,0,12,5.4,12,12v162
		C986,240.8,980.6,246.2,974,246.2z"/>
	<g>
		<path class="st1" d="M106.7,5.3c0,0-14.8,69.8-16.4,89.2c0,0,22.2-26.1,50.1-17.7l68.1-49.6C208.5,27.2,176.4-2.3,106.7,5.3z"/>
		<path class="st1" d="M229,49.3l-25.4,18.8c0,0,38.6,9.9,46.8,7.5C250.3,75.6,238.8,53.6,229,49.3z"/>
		<path class="st2" d="M264.3,110.5c4.1,79.1-20.5,110.2-20.5,110.2l-51.7-73.2c7.4-23.6-13.1-53-13.1-53L264.3,110.5z"/>
		<path class="st1" d="M221.8,241.7c2,11-29.8,17.7-29.8,17.7l7.4-47.1C199.4,212.3,218.8,224.9,221.8,241.7z"/>
		<path class="st1" d="M132.1,202.2c0,0,35.3-7.6,42.7-16.8s-12.3,84.1-16.4,85.8c-4.1,1.7-55,14.3-100.2-18.5l65.7-52.2l32,35.3
			L132.1,202.2z"/>
		<path class="st1" d="M58.2,207.2L18,201.3c0,0,6.6,26.7,15.6,28.5C42.6,231.6,58.2,207.2,58.2,207.2z"/>
		<path class="st1" d="M24.6,62.8c0,0-36.1,40.1-19.7,104.9l85.4,13.5l-17.2-23.6l-1.6-30.3L24.6,62.8z"/>
		<polygon class="st1" points="45.4,36.4 63.2,62.8 73.8,17.9 		"/>
	</g>
	<g>
		<polygon class="st3" points="986.9,50.9 971.5,50.9 951.3,74.7 966.1,74.7 		"/>
		<polygon class="st3" points="938.9,50.9 923.5,50.9 903.3,74.7 918.2,74.7 		"/>
		<polygon class="st3" points="963,50.9 947.5,50.9 927.3,74.7 942.2,74.7 		"/>
		<polygon class="st3" points="914.4,50.9 899,50.9 878.8,74.7 893.6,74.7 		"/>
		<polygon class="st3" points="890.4,50.9 875,50.9 854.8,74.7 869.6,74.7 		"/>
		<polygon class="st3" points="842.5,50.9 827,50.9 806.8,74.7 821.7,74.7 		"/>
		<polygon class="st3" points="866.5,50.9 851.1,50.9 830.9,74.7 845.7,74.7 		"/>
		<polygon class="st3" points="818,50.9 802.5,50.9 782.3,74.7 797.2,74.7 		"/>
		<polygon class="st3" points="793.9,50.9 778.4,50.9 758.2,74.7 773.1,74.7 		"/>
		<polygon class="st3" points="770,50.9 754.5,50.9 734.3,74.7 749.2,74.7 		"/>
	</g>
	<g>
		<polyline class="st4" points="190.6,253.8 249.6,320.6 566.1,320.6 		"/>
		<path class="st5" d="M961.6,392.7H327.1c-11.9,0-21.7-9.8-21.7-21.7v-91c0-11.9,9.8-21.7,21.7-21.7h634.5
			c11.9,0,21.7,9.8,21.7,21.7v91C983.3,382.9,973.6,392.7,961.6,392.7z"/>
	</g>
</g>
</svg>
