<?xml version="1.0" encoding="utf-8"?>
<!-- Generator: Adobe Illustrator 24.0.0, SVG Export Plug-In . SVG Version: 6.00 Build 0)  -->
<svg version="1.1" id="Layer_1" xmlns="http://www.w3.org/2000/svg" xmlns:xlink="http://www.w3.org/1999/xlink" x="0px" y="0px"
	 viewBox="0 0 1000.6 403.5" style="enable-background:new 0 0 1000.6 403.5;" xml:space="preserve">
<style type="text/css">
	.st0{fill:#400D10;stroke:#400D10;stroke-miterlimit:10;}
	.st1{fill:#FEE026;stroke:#000000;stroke-width:3;stroke-miterlimit:10;}
	.st2{fill:#FEE026;stroke:#000000;stroke-width:6;stroke-miterlimit:10;}
	.st3{fill:#FFFFFF;stroke:#000000;stroke-width:6;stroke-miterlimit:10;}
	.st4{fill:none;stroke:#090200;stroke-width:6;stroke-miterlimit:10;}
	.st5{fill:#FFFFFD;stroke:#000000;stroke-width:5;stroke-miterlimit:10;}
</style>
<g>
	<path class="st0" d="M988,244.4H239c-6.6,0-12-5.4-12-12V65.3c0-6.6,5.4-12,12-12h749c6.6,0,12,5.4,12,12v167.1
		C1000,239,994.6,244.4,988,244.4z"/>
	<g>
		<polygon class="st1" points="986.8,44.5 970.8,44.5 949.9,70.2 965.3,70.2 		"/>
		<polygon class="st1" points="937.2,44.5 921.2,44.5 900.3,70.2 915.7,70.2 		"/>
		<polygon class="st1" points="962,44.5 946,44.5 925.2,70.2 940.5,70.2 		"/>
		<polygon class="st1" points="911.8,44.5 895.9,44.5 875,70.2 890.3,70.2 		"/>
		<polygon class="st1" points="887,44.5 871.1,44.5 850.2,70.2 865.5,70.2 		"/>
		<polygon class="st1" points="837.5,44.5 821.5,44.5 800.6,70.2 816,70.2 		"/>
		<polygon class="st1" points="862.3,44.5 846.3,44.5 825.4,70.2 840.8,70.2 		"/>
		<polygon class="st1" points="812.1,44.5 796.1,44.5 775.2,70.2 790.6,70.2 		"/>
		<polygon class="st1" points="787.2,44.5 771.3,44.5 750.4,70.2 765.7,70.2 		"/>
		<polygon class="st1" points="762.5,44.5 746.5,44.5 725.6,70.2 741,70.2 		"/>
	</g>
	<g>
		<path class="st2" d="M114.5,1.3c0,0-16,71.3-17.7,91.1c0,0,23.9-26.6,54.1-18l73.5-50.7C224.4,23.6,189.8-6.4,114.5,1.3z"/>
		<path class="st2" d="M246.5,46.2L219,65.5c0,0,41.6,10.2,50.5,7.6C269.6,73.1,257.2,50.7,246.5,46.2z"/>
		<path class="st3" d="M284.6,108.7c4.4,80.8-22.2,112.6-22.2,112.6l-55.8-74.8c8-24.1-14.2-54.1-14.2-54.1L284.6,108.7z"/>
		<path class="st2" d="M238.8,242.8c2.2,11.2-32.2,18-32.2,18l8-48.1C214.6,212.7,235.5,225.6,238.8,242.8z"/>
		<path class="st2" d="M142,202.4c0,0,38.1-7.7,46.1-17.2s-13.3,85.9-17.7,87.7C166,274.6,111,287.5,62.3,254l70.9-53.3l34.6,36.1
			L142,202.4z"/>
		<path class="st2" d="M62.2,207.5l-43.4-6c0,0,7.1,27.3,16.8,29.1C45.4,232.5,62.2,207.5,62.2,207.5z"/>
		<path class="st2" d="M25.9,60.1c0,0-39,40.9-21.3,107.1L96.8,181l-18.6-24.1L76.4,126L25.9,60.1z"/>
		<polygon class="st2" points="48.4,33.1 67.5,60.1 79.1,14.2 		"/>
	</g>
	<g>
		<polyline class="st4" points="207.9,264.9 266.9,331.8 583.4,331.8 		"/>
		<path class="st5" d="M978.9,403.8H344.4c-11.9,0-21.7-9.8-21.7-21.7v-91c0-11.9,9.8-21.7,21.7-21.7h634.5
			c11.9,0,21.7,9.8,21.7,21.7v91C1000.6,394.1,990.8,403.8,978.9,403.8z"/>
	</g>
</g>
</svg>
