<?xml version="1.0" encoding="utf-8"?>
<!-- Generator: Adobe Illustrator 24.0.0, SVG Export Plug-In . SVG Version: 6.00 Build 0)  -->
<svg version="1.1" id="Layer_1" xmlns="http://www.w3.org/2000/svg" xmlns:xlink="http://www.w3.org/1999/xlink" x="0px" y="0px"
	 viewBox="0 0 987.5 396.8" style="enable-background:new 0 0 987.5 396.8;" xml:space="preserve">
<style type="text/css">
	.st0{fill:#400D10;stroke:#400D10;stroke-miterlimit:10;}
	.st1{fill:#8C1D1D;stroke:#000000;stroke-width:6;stroke-miterlimit:10;}
	.st2{fill:#FFFFFF;stroke:#000000;stroke-width:6;stroke-miterlimit:10;}
	.st3{fill:#FF0000;stroke:#000000;stroke-width:3;stroke-miterlimit:10;}
	.st4{fill:none;stroke:#090200;stroke-width:6;stroke-miterlimit:10;}
	.st5{fill:#FFFFFD;stroke:#000000;stroke-width:5;stroke-miterlimit:10;}
</style>
<g>
	<path class="st0" d="M975.4,245.7H224c-6.6,0-12-5.4-12-12V74.5c0-6.6,5.4-12,12-12h751.4c6.6,0,12,5.4,12,12v159.2
		C987.4,240.3,982,245.7,975.4,245.7z"/>
	<g>
		<path class="st1" d="M107.8,1.2c0,0-15,70.1-16.7,89.5c0,0,22.5-26.2,50.9-17.7l69.2-49.8C211.2,23.2,178.6-6.4,107.8,1.2z"/>
		<path class="st1" d="M232,45.3l-25.8,18.9c0,0,39.2,10,47.5,7.5C253.7,71.7,242,49.7,232,45.3z"/>
		<path class="st2" d="M267.9,106.8c4.2,79.4-20.8,110.6-20.8,110.6l-52.5-73.5c7.5-23.6-13.3-53.2-13.3-53.2L267.9,106.8z"/>
		<path class="st1" d="M224.7,238.5c2,11-30.3,17.7-30.3,17.7l7.5-47.3C202,209,221.6,221.6,224.7,238.5z"/>
		<path class="st1" d="M133.6,198.8c0,0,35.9-7.6,43.4-16.9s-12.5,84.5-16.7,86.1c-4.2,1.7-55.9,14.4-101.7-18.6l66.7-52.4
			l32.5,35.5L133.6,198.8z"/>
		<path class="st1" d="M58.6,203.9L17.7,198c0,0,6.7,26.8,15.8,28.6C42.7,228.4,58.6,203.9,58.6,203.9z"/>
		<path class="st1" d="M24.4,58.9c0,0-36.7,40.2-20,105.3l86.7,13.5l-17.5-23.6l-1.7-30.4L24.4,58.9z"/>
		<polygon class="st1" points="45.5,32.4 63.6,58.9 74.4,13.9 		"/>
	</g>
	<g>
		<polygon class="st3" points="723.6,74.4 739.1,74.4 759.3,50.6 744.4,50.6 		"/>
		<polygon class="st3" points="771.6,74.4 787.1,74.4 807.3,50.6 792.4,50.6 		"/>
		<polygon class="st3" points="747.6,74.4 763,74.4 783.2,50.6 768.4,50.6 		"/>
		<polygon class="st3" points="796.1,74.4 811.6,74.4 831.8,50.6 816.9,50.6 		"/>
		<polygon class="st3" points="820.1,74.4 835.6,74.4 855.8,50.6 840.9,50.6 		"/>
		<polygon class="st3" points="868.1,74.4 883.5,74.4 903.7,50.6 888.9,50.6 		"/>
		<polygon class="st3" points="844.1,74.4 859.5,74.4 879.7,50.6 864.8,50.6 		"/>
		<polygon class="st3" points="892.6,74.4 908.1,74.4 928.3,50.6 913.4,50.6 		"/>
		<polygon class="st3" points="916.7,74.4 932.1,74.4 952.3,50.6 937.5,50.6 		"/>
		<polygon class="st3" points="940.6,74.4 956,74.4 976.2,50.6 961.4,50.6 		"/>
	</g>
	<g>
		<polyline class="st4" points="194.8,257.9 253.8,324.7 570.3,324.7 		"/>
		<path class="st5" d="M965.8,396.8H331.3c-11.9,0-21.7-9.8-21.7-21.7v-91c0-11.9,9.8-21.7,21.7-21.7h634.5
			c11.9,0,21.7,9.8,21.7,21.7v91C987.5,387,977.8,396.8,965.8,396.8z"/>
	</g>
</g>
</svg>
